<?xml version="1.0" standalone="no"?><!DOCTYPE svg PUBLIC "-//W3C//DTD SVG 1.1//EN" "http://www.w3.org/Graphics/SVG/1.1/DTD/svg11.dtd"><svg style="background-color: #ffffff;" t="1770273184131" class="icon" viewBox="0 0 2010 1024" version="1.1" xmlns="http://www.w3.org/2000/svg" p-id="5922" xmlns:xlink="http://www.w3.org/1999/xlink" width="392.578125" height="200"><path fill="#0854B8" d="M1726.976 665.827556c-117.304889 0-177.189926-60.795259-226.038519-109.454223-41.566815-42.552889-72.097185-72.969481-135.623111-72.969481-64.777481 0-95.345778 29.202963-136.874666 69.328592-48.886519 46.231704-108.771556 104.599704-223.61126 104.599704-114.87763 0-175.976296-58.368-223.611259-104.599704-41.566815-40.12563-72.097185-69.328593-136.874666-69.328592-63.525926 0-94.094222 30.416593-135.623112 72.969481-48.886519 48.658963-108.771556 109.454222-224.862814 109.454223-134.409481 0-219.932444-102.134519-282.244741-176.31763l96.521481-80.289185c62.312296 74.183111 116.091259 131.375407 186.974815 131.375407 63.525926 0 94.056296-30.416593 135.623111-72.969481 48.886519-48.658963 108.73363-109.492148 224.824889-109.492148s175.976296 58.405926 223.611259 104.599703c41.566815 40.12563 72.097185 69.328593 136.874667 69.328593s95.307852-29.202963 136.874667-69.328593c48.848593-46.193778 108.73363-104.599704 223.573333-104.599703 116.091259 0 177.189926 60.833185 224.862815 109.492148 41.566815 42.552889 72.097185 72.969481 135.623111 72.969481 70.883556 0 124.624593-57.192296 186.974815-131.375407L2010.472296 489.509926c-63.525926 74.183111-149.086815 176.31763-283.496296 176.31763z m0-358.172445c-117.304889 0-177.189926-60.795259-226.038519-109.454222-41.566815-42.552889-72.097185-72.969481-135.623111-72.969482-64.777481 0-95.345778 29.202963-136.874666 69.328593-48.886519 46.231704-108.771556 104.599704-223.61126 104.599704-114.87763 0-175.976296-58.368-223.611259-104.599704-41.566815-40.12563-72.097185-69.328593-136.874666-69.328593-63.525926 0-94.094222 30.416593-135.623112 72.969482-48.886519 48.658963-108.771556 109.454222-224.862814 109.454222C149.447111 307.655111 63.924148 205.520593 0.398222 131.337481l96.521482-80.289185C159.232 125.231407 213.010963 182.423704 283.856593 182.423704c63.563852 0 94.094222-30.416593 135.661037-72.969482C468.366222 60.795259 528.251259 0 644.342519 0s175.976296 58.368 223.611259 104.561778c41.528889 40.12563 72.097185 69.328593 136.874666 69.328592 64.739556 0 95.307852-29.202963 136.836741-69.328592C1190.551704 58.368 1250.436741 0 1365.31437 0c116.053333 0 177.152 60.795259 224.824889 109.454222 41.528889 42.552889 72.097185 72.969481 135.623111 72.969482 70.883556 0 124.624593-57.192296 186.974815-131.375408l96.521482 80.289185c-76.98963 92.425481-157.658074 176.31763-282.282667 176.31763zM285.108148 898.730667c63.525926 0 94.056296-30.378667 135.623111-72.969482 48.886519-48.621037 108.73363-109.454222 224.824889-109.454222s175.976296 58.405926 223.611259 104.599704c41.566815 40.12563 72.097185 69.328593 136.874667 69.328592s95.307852-29.202963 136.874667-69.328592c48.848593-46.193778 108.73363-104.599704 223.573333-104.599704 116.091259 0 177.189926 60.833185 224.862815 109.454222 41.566815 42.590815 72.097185 72.969481 135.623111 72.969482 70.883556 0 124.624593-57.15437 186.974815-131.337482L2010.472296 847.68237C1946.94637 921.865481 1861.385481 1024 1726.976 1024c-117.304889 0-177.189926-60.795259-226.038519-109.454222-41.566815-42.552889-72.097185-72.969481-135.623111-72.969482-64.777481 0-95.345778 29.202963-136.874666 69.328593-48.886519 46.231704-108.771556 104.599704-223.61126 104.599704-114.87763 0-175.976296-58.368-223.611259-104.599704-41.566815-40.12563-72.097185-69.328593-136.874666-69.328593-63.525926 0-94.094222 30.416593-135.623112 72.969482C459.832889 963.204741 399.947852 1024 283.856593 1024 149.447111 1024 63.924148 921.865481 1.611852 847.68237l96.521481-80.289185c62.312296 74.183111 116.091259 131.337481 186.974815 131.337482z"  p-id="5923"></path></svg>